<svg id="Layer_1" data-name="Layer 1" xmlns="http://www.w3.org/2000/svg" viewBox="0 0 649.04 264.08"><defs><style>.cls-1,.cls-3,.cls-7{fill:#fff;}.cls-1,.cls-2,.cls-3,.cls-7,.cls-8{stroke:#050a90;}.cls-1,.cls-2,.cls-3,.cls-8{stroke-width:2.08px;}.cls-1,.cls-6{fill-rule:evenodd;}.cls-2,.cls-8{fill:none;}.cls-4,.cls-6{fill:#050a90;}.cls-5{fill:#293347;}.cls-7{stroke-width:2.34px;}.cls-8{stroke-linecap:square;}</style></defs><g id="Website"><g id="Group-32"><path id="Case" class="cls-1" d="M126,41.77a7.28,7.28,0,0,1,7.29-7.29H386.87a7.29,7.29,0,0,1,7.29,7.29V215.31a7.28,7.28,0,0,1-7.29,7.28H133.3a7.28,7.28,0,0,1-7.29-7.28Z" transform="translate(0 -0.92)"/><path id="Case-2" data-name="Case" class="cls-1" d="M142.41,53.74a3.13,3.13,0,0,1,3.13-3.13H374.37a3.12,3.12,0,0,1,3.13,3.13V183a3.13,3.13,0,0,1-3.13,3.13H145.54a3.13,3.13,0,0,1-3.13-3.13Z" transform="translate(0 -0.92)"/><path id="Case-3" data-name="Case" class="cls-1" d="M241,222.59h38.45l2.6,33.56H238.39Z" transform="translate(0 -0.92)"/><path id="Keyboard" class="cls-1" d="M222.33,263.44v-3.51a3.78,3.78,0,0,1,3.77-3.78h68.23a3.79,3.79,0,0,1,3.77,3.78v3.51a.26.26,0,0,1-.27.26H222.6A.27.27,0,0,1,222.33,263.44Z" transform="translate(0 -0.92)"/><circle id="Oval-6" class="cls-2" cx="260.22" cy="204.89" r="4.82"/><rect id="Case-4" data-name="Case" class="cls-3" x="101.28" y="161.83" width="51.55" height="100.95" rx="6.24"/><path id="Case-5" data-name="Case" class="cls-1" d="M101.28,173.94h51.54v74.75H101.28Z" transform="translate(0 -0.92)"/><rect id="Rectangle-11" class="cls-4" x="114.81" y="166.25" width="24.73" height="2.08" rx="1.04"/><rect id="Rectangle-11-2" data-name="Rectangle-11" class="cls-4" x="124.18" y="252.11" width="5.94" height="5.93" rx="2.97"/><circle id="Oval-6-2" data-name="Oval-6" class="cls-3" cx="115.85" cy="210.22" r="3.91"/><rect id="Rectangle-11-3" data-name="Rectangle-11" class="cls-4" x="124.97" y="203.46" width="18.22" height="2.08" rx="1.04"/><rect id="Rectangle-11-4" data-name="Rectangle-11" class="cls-4" x="124.97" y="209.18" width="13.02" height="2.08" rx="1.04"/><rect id="Rectangle-11-5" data-name="Rectangle-11" class="cls-4" x="124.97" y="214.91" width="7.81" height="2.08" rx="1.04"/><ellipse id="Oval-7" class="cls-3" cx="74.85" cy="170.81" rx="39.96" ry="39.94"/><rect id="Case-6" data-name="Case" class="cls-3" x="319.7" y="122.54" width="192.65" height="129.31" rx="6.24"/><path id="Keyboard-2" data-name="Keyboard" class="cls-1" d="M306.43,253v5.21a5.46,5.46,0,0,0,5.46,5.46H520.18a5.47,5.47,0,0,0,5.46-5.46V253a.25.25,0,0,0-.26-.26H306.68A.25.25,0,0,0,306.43,253Z" transform="translate(0 -0.92)"/><path id="Notch" class="cls-1" d="M430.43,252.89H401.27a8.06,8.06,0,0,0,7.54,5.2h14.08A8.06,8.06,0,0,0,430.43,252.89Z" transform="translate(0 -0.92)"/><rect id="Screen" class="cls-3" x="328.3" y="134.77" width="175.32" height="105.07" rx="2.08"/><circle id="Oval-3" class="cls-5" cx="254.36" cy="52.04" r="1.3"/><path id="Case-7" data-name="Case" class="cls-1" d="M179.9,15H300.18V130.23a7.29,7.29,0,0,1-7.29,7.28H187.19a7.29,7.29,0,0,1-7.29-7.28Z" transform="translate(0 -0.92)"/><path id="Case-8" data-name="Case" class="cls-1" d="M179.9,9.24A7.29,7.29,0,0,1,187.19,2h105.7a7.29,7.29,0,0,1,7.29,7.28v7.81H179.9Z" transform="translate(0 -0.92)"/><circle id="Oval-5" class="cls-4" cx="191.09" cy="8.59" r="2.34"/><circle id="Oval-5-2" data-name="Oval-5" class="cls-4" cx="198.9" cy="8.59" r="2.34"/><circle id="Oval-5-3" data-name="Oval-5" class="cls-4" cx="206.71" cy="8.59" r="2.34"/><path id="Rectangle-11-6" data-name="Rectangle-11" class="cls-6" d="M195.52,90.94h2.6a1,1,0,0,1,1,1h0a1,1,0,0,1-1,1h-2.6a1,1,0,0,1-1-1h0A1,1,0,0,1,195.52,90.94Z" transform="translate(0 -0.92)"/><path id="Rectangle-11-7" data-name="Rectangle-11" class="cls-6" d="M195.52,38.9h2.6a1,1,0,0,1,1,1.05h0a1,1,0,0,1-1,1h-2.6a1,1,0,0,1-1-1h0A1,1,0,0,1,195.52,38.9Z" transform="translate(0 -0.92)"/><path id="Rectangle-11-8" data-name="Rectangle-11" class="cls-6" d="M203.33,38.9h7a1,1,0,0,1,0,2.09h-7a1,1,0,0,1,0-2.09Z" transform="translate(0 -0.92)"/><path id="Rectangle-11-9" data-name="Rectangle-11" class="cls-6" d="M215,38.9h7a1,1,0,0,1,0,2.09h-7a1,1,0,0,1,0-2.09Z" transform="translate(0 -0.92)"/><path id="Rectangle-11-10" data-name="Rectangle-11" class="cls-6" d="M226.76,38.9h13a1,1,0,0,1,0,2.09h-13a1,1,0,0,1,0-2.09Z" transform="translate(0 -0.92)"/><path id="Rectangle-11-11" data-name="Rectangle-11" class="cls-6" d="M244.46,38.9h19.27a1,1,0,0,1,0,2.09H244.46a1,1,0,0,1,0-2.09Z" transform="translate(0 -0.92)"/><path id="Rectangle-11-12" data-name="Rectangle-11" class="cls-6" d="M195.52,49.31h2.6a1,1,0,0,1,1,1h0a1,1,0,0,1-1,1h-2.6a1,1,0,0,1-1-1h0A1,1,0,0,1,195.52,49.31Z" transform="translate(0 -0.92)"/><path id="Rectangle-11-13" data-name="Rectangle-11" class="cls-6" d="M195.52,59.72h2.6a1,1,0,0,1,1,1h0a1,1,0,0,1-1,1h-2.6a1,1,0,0,1-1-1h0A1,1,0,0,1,195.52,59.72Z" transform="translate(0 -0.92)"/><path id="Rectangle-11-14" data-name="Rectangle-11" class="cls-6" d="M195.52,70.13h2.6a1,1,0,0,1,1,1h0a1,1,0,0,1-1,1h-2.6a1,1,0,0,1-1-1h0A1,1,0,0,1,195.52,70.13Z" transform="translate(0 -0.92)"/><path id="Rectangle-11-15" data-name="Rectangle-11" class="cls-6" d="M195.52,80.53h2.6a1,1,0,0,1,1,1h0a1,1,0,0,1-1,1h-2.6a1,1,0,0,1-1-1h0A1,1,0,0,1,195.52,80.53Z" transform="translate(0 -0.92)"/><path id="Rectangle-11-16" data-name="Rectangle-11" class="cls-6" d="M195.52,101.35h2.6a1,1,0,0,1,1,1h0a1,1,0,0,1-1,1h-2.6a1,1,0,0,1-1-1h0A1,1,0,0,1,195.52,101.35Z" transform="translate(0 -0.92)"/><path id="Rectangle-11-17" data-name="Rectangle-11" class="cls-6" d="M195.52,111.75h2.6a1,1,0,0,1,1,1h0a1,1,0,0,1-1,1h-2.6a1,1,0,0,1-1-1h0A1,1,0,0,1,195.52,111.75Z" transform="translate(0 -0.92)"/><path id="Rectangle-11-18" data-name="Rectangle-11" class="cls-6" d="M203.33,49.31h16.14a1,1,0,0,1,1,1h0a1,1,0,0,1-1,1H203.33a1,1,0,0,1-1-1h0A1,1,0,0,1,203.33,49.31Z" transform="translate(0 -0.92)"/><path id="Rectangle-11-19" data-name="Rectangle-11" class="cls-6" d="M224.16,49.31h29.16a1,1,0,0,1,1,1h0a1,1,0,0,1-1,1H224.16a1,1,0,0,1-1-1h0A1,1,0,0,1,224.16,49.31Z" transform="translate(0 -0.92)"/><path id="Rectangle-11-20" data-name="Rectangle-11" class="cls-6" d="M258,49.31h10.94a1,1,0,0,1,1,1h0a1,1,0,0,1-1,1H258a1,1,0,0,1-1-1h0A1,1,0,0,1,258,49.31Z" transform="translate(0 -0.92)"/><path id="Rectangle-11-21" data-name="Rectangle-11" class="cls-6" d="M203.33,59.72h10.94a1,1,0,0,1,1,1h0a1,1,0,0,1-1,1H203.33a1,1,0,0,1-1-1h0A1,1,0,0,1,203.33,59.72Z" transform="translate(0 -0.92)"/><path id="Rectangle-11-22" data-name="Rectangle-11" class="cls-6" d="M219,59.72h10.94a1,1,0,0,1,1,1h0a1,1,0,0,1-1,1H219a1,1,0,0,1-1-1h0A1,1,0,0,1,219,59.72Z" transform="translate(0 -0.92)"/><path id="Rectangle-11-23" data-name="Rectangle-11" class="cls-6" d="M234.57,59.72h5.73a1,1,0,0,1,1,1h0a1,1,0,0,1-1,1h-5.73a1,1,0,0,1-1-1h0A1,1,0,0,1,234.57,59.72Z" transform="translate(0 -0.92)"/><path id="Rectangle-11-24" data-name="Rectangle-11" class="cls-6" d="M203.33,70.13h23.95a1,1,0,0,1,1,1h0a1,1,0,0,1-1,1H203.33a1,1,0,0,1-1-1h0A1,1,0,0,1,203.33,70.13Z" transform="translate(0 -0.92)"/><path id="Rectangle-11-25" data-name="Rectangle-11" class="cls-6" d="M232,70.13h16.14a1,1,0,0,1,1,1h0a1,1,0,0,1-1,1H232a1,1,0,0,1-1-1h0A1,1,0,0,1,232,70.13Z" transform="translate(0 -0.92)"/><path id="Rectangle-11-26" data-name="Rectangle-11" class="cls-6" d="M203.33,80.53h23.95a1,1,0,0,1,1,1h0a1,1,0,0,1-1,1H203.33a1,1,0,0,1-1-1h0A1,1,0,0,1,203.33,80.53Z" transform="translate(0 -0.92)"/><path id="Rectangle-11-27" data-name="Rectangle-11" class="cls-6" d="M232,80.53h31.76a1,1,0,0,1,1,1h0a1,1,0,0,1-1,1H232a1,1,0,0,1-1-1h0A1,1,0,0,1,232,80.53Z" transform="translate(0 -0.92)"/><path id="Rectangle-11-28" data-name="Rectangle-11" class="cls-6" d="M203.33,90.94h16.14a1,1,0,0,1,1,1h0a1,1,0,0,1-1,1H203.33a1,1,0,0,1-1-1h0A1,1,0,0,1,203.33,90.94Z" transform="translate(0 -0.92)"/><path id="Rectangle-11-29" data-name="Rectangle-11" class="cls-6" d="M224.16,90.94H240.3a1,1,0,0,1,1,1h0a1,1,0,0,1-1,1H224.16a1,1,0,0,1-1-1h0A1,1,0,0,1,224.16,90.94Z" transform="translate(0 -0.92)"/><path id="Rectangle-11-30" data-name="Rectangle-11" class="cls-6" d="M245,90.94h8.34a1,1,0,0,1,1,1h0a1,1,0,0,1-1,1H245a1,1,0,0,1-1-1h0A1,1,0,0,1,245,90.94Z" transform="translate(0 -0.92)"/><path id="Rectangle-11-31" data-name="Rectangle-11" class="cls-6" d="M203.33,101.35h31.76a1,1,0,0,1,1,1h0a1,1,0,0,1-1,1H203.33a1,1,0,0,1-1-1h0A1,1,0,0,1,203.33,101.35Z" transform="translate(0 -0.92)"/><path id="Rectangle-11-32" data-name="Rectangle-11" class="cls-6" d="M203.33,111.75h13.54a1,1,0,0,1,1,1h0a1,1,0,0,1-1,1H203.33a1,1,0,0,1-1-1h0A1,1,0,0,1,203.33,111.75Z" transform="translate(0 -0.92)"/><path id="Case-9" data-name="Case" class="cls-1" d="M415,96.66H557.66V198.14a7.28,7.28,0,0,1-7.29,7.28H422.28a7.29,7.29,0,0,1-7.29-7.28Z" transform="translate(0 -0.92)"/><path id="Case-10" data-name="Case" class="cls-1" d="M415,90.93a7.27,7.27,0,0,1,7.29-7.27H550.37a7.27,7.27,0,0,1,7.29,7.27v7.82H415Z" transform="translate(0 -0.92)"/><circle id="Oval-5-4" data-name="Oval-5" class="cls-4" cx="426.19" cy="90.28" r="2.34"/><circle id="Oval-5-5" data-name="Oval-5" class="cls-4" cx="434" cy="90.28" r="2.34"/><circle id="Oval-5-6" data-name="Oval-5" class="cls-4" cx="441.81" cy="90.28" r="2.34"/><ellipse id="Oval-6-3" data-name="Oval-6" class="cls-7" cx="503.25" cy="150.12" rx="26.03" ry="26.02"/><path id="Rectangle-12" class="cls-1" d="M500.38,121.9v6.25h6.25V121.9Z" transform="translate(0 -0.92)"/><path id="Rectangle-12-2" data-name="Rectangle-12" class="cls-1" d="M500.12,173.94v6.24h6.25v-6.24Z" transform="translate(0 -0.92)"/><path id="Rectangle-12-3" data-name="Rectangle-12" class="cls-1" d="M474.09,148.18v6.24h6.25v-6.24Z" transform="translate(0 -0.92)"/><path id="Rectangle-12-4" data-name="Rectangle-12" class="cls-1" d="M525.9,148.18v6.24h6.25v-6.24Z" transform="translate(0 -0.92)"/><line id="Line" class="cls-8" x1="529.28" y1="126.71" x2="529.28" y2="146.22"/><line id="Line-2" data-name="Line" class="cls-8" x1="529.28" y1="154.03" x2="529.28" y2="173.54"/><circle id="Oval-5-7" data-name="Oval-5" class="cls-4" cx="529.28" cy="125.93" r="3.12"/><circle id="Oval-5-8" data-name="Oval-5" class="cls-4" cx="529.28" cy="175.36" r="3.12"/><g id="Group-60"><rect id="Rectangle-15" class="cls-3" x="440.5" y="118.64" width="16.14" height="16.13" rx="3.12"/><rect id="Rectangle-15-2" data-name="Rectangle-15" class="cls-3" x="440.5" y="142.06" width="16.14" height="16.13" rx="3.12"/><rect id="Rectangle-15-3" data-name="Rectangle-15" class="cls-3" x="440.5" y="165.47" width="16.14" height="16.13" rx="3.12"/></g><ellipse id="Oval-8" class="cls-3" cx="632.38" cy="238.06" rx="15.62" ry="15.61"/><ellipse id="Oval-8-2" data-name="Oval-8" class="cls-3" cx="632.38" cy="238.06" rx="9.11" ry="9.11"/><circle id="Oval-8-3" data-name="Oval-8" class="cls-3" cx="611.55" cy="214.39" r="5.21"/><path id="Rectangle-16" class="cls-1" d="M588.64,214a1,1,0,0,0-1,1.05v43.71a5.2,5.2,0,0,0,5.2,5.2h35.92a5.2,5.2,0,0,0,5.2-5.2V215.05a1,1,0,0,0-1-1.05Z" transform="translate(0 -0.92)"/><rect id="Rectangle-16-2" data-name="Rectangle-16" class="cls-3" x="609.73" y="227.14" width="13.54" height="16.65" rx="3.12"/><line id="Line-2-2" data-name="Line-2" class="cls-8" x1="616.37" y1="213.48" x2="616.37" y2="225.31"/><path id="Oval-8-4" data-name="Oval-8" class="cls-1" d="M557.92,263.7h15.62a15.62,15.62,0,0,0-31.24,0Z" transform="translate(0 -0.92)"/><path id="Rectangle-11-33" data-name="Rectangle-11" class="cls-6" d="M557.92,247.57h0a1,1,0,0,1,1,1v1.3a1,1,0,0,1-1,1h0a1,1,0,0,1-1-1v-1.3A1,1,0,0,1,557.92,247.57Z" transform="translate(0 -0.92)"/><path id="Rectangle-17" class="cls-1" d="M16.39,233a15.35,15.35,0,0,0,0,30.7h63A1.56,1.56,0,0,0,81,262.14v-2.42A2.08,2.08,0,0,0,79,257.65c-7.15-.51-11-3.65-11-9.3s3.8-8.79,11-9.3A2.09,2.09,0,0,0,81,237v-2.41A1.56,1.56,0,0,0,79.41,233Z" transform="translate(0 -0.92)"/><path id="Rectangle-19" class="cls-2" d="M80.19,258.3a.47.47,0,0,1-.46.46H16.14a10.41,10.41,0,0,1,0-20.82H79.73a.47.47,0,0,1,.46.46" transform="translate(0 -0.92)"/><rect id="Rectangle-18" class="cls-4" x="14.06" y="243.01" width="54.67" height="2.08" rx="1.04"/><rect id="Rectangle-18-2" data-name="Rectangle-18" class="cls-4" x="14.06" y="249.51" width="54.67" height="2.08" rx="1.04"/><path id="Shape" class="cls-4" d="M65.13,181.06l-3.84-3.41-6.1-5.43L53.8,171v1.64l3.83-3.4,6.1-5.43,1.4-1.24a1.16,1.16,0,0,0,0-1.64,1.21,1.21,0,0,0-1.65,0l-3.84,3.41c-2,1.8-4.06,3.62-6.1,5.42L52.15,171a1.16,1.16,0,0,0,0,1.64L56,176l6.1,5.42,1.4,1.24a1.19,1.19,0,0,0,1.65,0,1.17,1.17,0,0,0,0-1.63Z" transform="translate(0 -0.92)"/><path id="Shape-2" data-name="Shape" class="cls-4" d="M84.58,162.55,88.42,166l6.1,5.43,1.39,1.24V171l-3.83,3.4L86,179.82l-1.4,1.24a1.16,1.16,0,0,0,0,1.64,1.21,1.21,0,0,0,1.65,0l3.84-3.41,6.1-5.43,1.39-1.23a1.16,1.16,0,0,0,0-1.64l-3.83-3.41-6.1-5.43c-.47-.41-.94-.82-1.4-1.24a1.2,1.2,0,0,0-1.65,0,1.17,1.17,0,0,0,0,1.64Z" transform="translate(0 -0.92)"/><path id="Shape-3" data-name="Shape" class="cls-4" d="M70.69,187.88l1-3.14c.83-2.51,1.67-5,2.5-7.52q1.5-4.53,3-9.06,1.3-3.91,2.6-7.84c.42-1.26.89-2.53,1.27-3.81l0,0a1.17,1.17,0,0,0-.82-1.43,1.19,1.19,0,0,0-1.43.81L77.85,159l-2.5,7.51c-1,3-2,6-3,9.07q-1.31,3.91-2.6,7.83c-.42,1.27-.89,2.53-1.27,3.81l0,.06a1.16,1.16,0,0,0,.82,1.42,1.18,1.18,0,0,0,1.43-.8Z" transform="translate(0 -0.92)"/></g></g></svg>