<svg id="Layer_1" data-name="Layer 1" xmlns="http://www.w3.org/2000/svg" xmlns:xlink="http://www.w3.org/1999/xlink" viewBox="0 0 234.05 248"><defs><style>.cls-1,.cls-2{fill:#fff;}.cls-11,.cls-12,.cls-16,.cls-18,.cls-19,.cls-2,.cls-23,.cls-25,.cls-7{fill-rule:evenodd;}.cls-3{fill:#050a90;}.cls-4{mask:url(#mask);}.cls-5{fill:none;}.cls-6{mask:url(#mask-2-2);}.cls-7{fill:#d0c6ac;}.cls-8{mask:url(#mask-3);}.cls-9{fill:#ccae92;}.cls-10{mask:url(#mask-4-2);}.cls-11{fill-opacity:0.1;}.cls-12{fill:#b7c1db;}.cls-13{mask:url(#mask-5);}.cls-14{fill:#ffff50;}.cls-15{mask:url(#mask-6-3);}.cls-16{fill:#f4f4f4;}.cls-17{mask:url(#mask-7);}.cls-18{fill-opacity:0.16;}.cls-19{fill-opacity:0.7;}.cls-20{mask:url(#mask-8-4);}.cls-21{mask:url(#mask-9);}.cls-22{fill:#ff4f6d;}.cls-23{fill-opacity:0.6;}.cls-24{mask:url(#mask-10-3);}.cls-25{fill:#f4f458;}.cls-26{mask:url(#mask-11);}.cls-27{fill:#4a312c;}</style><mask id="mask" x="10.67" y="35.32" width="211.87" height="211.94" maskUnits="userSpaceOnUse"><g transform="translate(6 11)"><g id="mask-2"><ellipse id="path-1" class="cls-1" cx="110.39" cy="130.29" rx="105.72" ry="105.97"/></g></g></mask><mask id="mask-2-2" x="0.1" y="0" width="232.58" height="247.26" maskUnits="userSpaceOnUse"><g transform="translate(6 11)"><g id="mask-4"><path id="path-3" class="cls-2" d="M-5.9,130.29V-11H226.68V130.29H216.1c0,58.53-47.33,106-105.71,106a105.84,105.84,0,0,1-105.72-106H-5.9Z"/></g></g></mask><mask id="mask-3" x="0.1" y="31.79" width="233.35" height="216.21" maskUnits="userSpaceOnUse"><g transform="translate(6 11)"><g id="mask-6"><path id="path-5" class="cls-2" d="M110.39,20.79a49.39,49.39,0,0,1,49.33,49.45v5.45a10.59,10.59,0,0,1,8.81,10.45V98.5A10.58,10.58,0,0,1,159.45,109a49.47,49.47,0,0,1-27.92,39.5v16.24h3.52a63.5,63.5,0,0,1,63.43,63.58v7.95H22.29v-7.95a63.51,63.51,0,0,1,63.43-63.58h3.52V148.49A49.49,49.49,0,0,1,61.32,109,10.58,10.58,0,0,1,52.24,98.5V86.14a10.59,10.59,0,0,1,8.81-10.45V70.24A49.4,49.4,0,0,1,110.39,20.79Z"/></g></g></mask><mask id="mask-4-2" x="28.29" y="31.79" width="176.2" height="215.47" maskUnits="userSpaceOnUse"><g transform="translate(6 11)"><g id="mask-6-2" data-name="mask-6"><path id="path-5-2" data-name="path-5" class="cls-2" d="M110.39,20.79a49.39,49.39,0,0,1,49.33,49.45v5.45a10.59,10.59,0,0,1,8.81,10.45V98.5A10.58,10.58,0,0,1,159.45,109a49.47,49.47,0,0,1-27.92,39.5v16.24h3.52a63.5,63.5,0,0,1,63.43,63.58v7.95H22.29v-7.95a63.51,63.51,0,0,1,63.43-63.58h3.52V148.49A49.49,49.49,0,0,1,61.32,109,10.58,10.58,0,0,1,52.24,98.5V86.14a10.59,10.59,0,0,1,8.81-10.45V70.24A49.4,49.4,0,0,1,110.39,20.79Z"/></g></g></mask><mask id="mask-5" x="0.1" y="150.12" width="233.45" height="97.14" maskUnits="userSpaceOnUse"><g transform="translate(6 11)"><g id="mask-8"><path id="path-7" class="cls-2" d="M131.53,150.66c15.95,1.79,28.19,6.71,28.19,19.44v-.39a63.6,63.6,0,0,1,38.76,58.6v7.95H22.29v-7.95a63.61,63.61,0,0,1,38.77-58.6c.24-12.44,12.4-17.28,28.18-19.05v16.72a21.15,21.15,0,1,0,42.29,0h0Z"/></g></g></mask><mask id="mask-6-3" x="28.29" y="161.66" width="176.2" height="85.6" maskUnits="userSpaceOnUse"><g transform="translate(6 11)"><g id="mask-8-2" data-name="mask-8"><path id="path-7-2" data-name="path-7" class="cls-2" d="M131.53,150.66c15.95,1.79,28.19,6.71,28.19,19.44v-.39a63.6,63.6,0,0,1,38.76,58.6v7.95H22.29v-7.95a63.61,63.61,0,0,1,38.77-58.6c.24-12.44,12.4-17.28,28.18-19.05v16.72a21.15,21.15,0,1,0,42.29,0h0Z"/></g></g></mask><mask id="mask-7" x="28.29" y="161.36" width="176.2" height="85.9" maskUnits="userSpaceOnUse"><g transform="translate(6 11)"><g id="mask-8-3" data-name="mask-8"><path id="path-7-3" data-name="path-7" class="cls-2" d="M131.53,150.66c15.95,1.79,28.19,6.71,28.19,19.44v-.39a63.6,63.6,0,0,1,38.76,58.6v7.95H22.29v-7.95a63.61,63.61,0,0,1,38.77-58.6c.24-12.44,12.4-17.28,28.18-19.05v16.72a21.15,21.15,0,1,0,42.29,0h0Z"/></g></g></mask><mask id="mask-8-4" x="99.75" y="120.1" width="33.29" height="26.49" maskUnits="userSpaceOnUse"><g transform="translate(6 11)"><g id="mask-10"><path id="path-9" class="cls-2" d="M93.75,120.69a16.74,16.74,0,0,0,33.28-.08,1.85,1.85,0,0,0-1.63-1.8H95.49A1.89,1.89,0,0,0,93.75,120.69Z"/></g></g></mask><mask id="mask-9" x="99.75" y="129.81" width="33.29" height="29.14" maskUnits="userSpaceOnUse"><g transform="translate(6 11)"><g id="mask-10-2" data-name="mask-10"><path id="path-9-2" data-name="path-9" class="cls-2" d="M93.75,120.69a16.74,16.74,0,0,0,33.28-.08,1.85,1.85,0,0,0-1.63-1.8H95.49A1.89,1.89,0,0,0,93.75,120.69Z"/></g></g></mask><mask id="mask-10-3" x="0.1" y="0" width="232.58" height="247.26" maskUnits="userSpaceOnUse"><g transform="translate(6 11)"><g id="mask-12"><rect id="path-11" class="cls-1" x="-5.9" y="-11" width="232.58" height="247.26"/></g></g></mask><mask id="mask-11" x="0" y="0" width="234.05" height="247.66" maskUnits="userSpaceOnUse"><g transform="translate(6 11)"><g id="mask-14"><path id="path-13" class="cls-2" d="M151.83,24.25a75.47,75.47,0,0,0-8-6.72c-.61-.47-1.22-.92-1.82-1.41a10.15,10.15,0,0,1-1.68-1.46c-.39-.88-.16-.2-.11-1.24.07-1.33,2.76-5.06.75-5.92-.88-.38-2.45.63-3.3,1q-2.49,1-5,1.67c.82-1.64,2.39-4.92-.56-4-2.29.69-4.42,2.45-6.73,3.27.76-1.25,3.81-5.13,1.06-5.35C125.53,4,123,5.56,122.12,5.9a48.87,48.87,0,0,1-8.49,2.22C103.76,9.9,92.23,9.39,83.1,13.9c-7,3.47-14,8.85-18,15.71-3.92,6.61-5.38,13.84-6.2,21.42a106.91,106.91,0,0,0-.37,16.88c.09,1.83.29,10.25,2.94,7.7,1.32-1.27,1.31-6.4,1.65-8.14a80.28,80.28,0,0,1,2.4-10.28c1.94-5.89,4.23-8.64,9.08-12.71,3.1-2.6,5.28-6.13,8.26-8.76,1.33-1.18.31-1,2.46-.9,1.44.11,2.89.14,4.34.18,3.34.09,6.69.07,10,.08,6.73,0,13.44.12,20.17-.23,3-.16,6-.25,9-.52,1.67-.16,4.63-1.23,6-.41s2.56,3.19,3.46,4.19a52.77,52.77,0,0,0,7.16,6.11c5.19,4.05,7.81,5.59,9.39,11.91s1.13,12.14,3.07,18.34c.35,1.09,1.25,3,2.37,1.28a12.74,12.74,0,0,0,.15-3c0-4,1-7,1-11C161.34,49.51,160.94,33.59,151.83,24.25Z"/></g></g></mask></defs><g id="Website"><g id="mf-avatar"><g id="Circle"><g id="Circle-Background"><ellipse id="path-1-2" data-name="path-1" class="cls-3" cx="116.39" cy="141.29" rx="105.72" ry="105.97"/></g><g class="cls-4"><g id="_-Circle-Color" data-name="ðŸ–-Circle-Color"><rect id="_Color" data-name="ðŸ–Color" class="cls-5" x="10.67" y="35.32" width="211.87" height="211.94"/></g></g></g><g class="cls-6"><g id="Avataaar"><g id="Body"><path id="path-5-3" data-name="path-5" class="cls-7" d="M110.39,20.79a49.39,49.39,0,0,1,49.33,49.45v5.45a10.59,10.59,0,0,1,8.81,10.45V98.5A10.58,10.58,0,0,1,159.45,109a49.47,49.47,0,0,1-27.92,39.5v16.24h3.52a63.5,63.5,0,0,1,63.43,63.58v7.95H22.29v-7.95a63.51,63.51,0,0,1,63.43-63.58h3.52V148.49A49.49,49.49,0,0,1,61.32,109,10.58,10.58,0,0,1,52.24,98.5V86.14a10.59,10.59,0,0,1,8.81-10.45V70.24A49.4,49.4,0,0,1,110.39,20.79Z" transform="translate(6 11)"/><g class="cls-8"><g id="Skin_-05-Pale" data-name="Skin/ðŸ‘¶ðŸ»-05-Pale"><g id="Color"><rect class="cls-9" x="0.1" y="31.79" width="233.35" height="216.21"/></g></g></g><g class="cls-10"><path id="Neck-Shadow" class="cls-11" d="M61.05,103.8a49.34,49.34,0,1,0,98.67,0h0v7.06a49.34,49.34,0,1,1-98.67,0Z" transform="translate(6 11)"/></g></g><g id="Clothing_Hoodie" data-name="Clothing/Hoodie"><g id="Hoodie"><path id="path-7-4" data-name="path-7" class="cls-12" d="M131.53,150.66c15.95,1.79,28.19,6.71,28.19,19.44v-.39a63.6,63.6,0,0,1,38.76,58.6v7.95H22.29v-7.95a63.61,63.61,0,0,1,38.77-58.6c.24-12.44,12.4-17.28,28.18-19.05v16.72a21.15,21.15,0,1,0,42.29,0h0Z" transform="translate(6 11)"/></g><g class="cls-13"><g id="Color_Palette_Slate" data-name="Color/Palette/Slate"><rect id="_Color-2" data-name="ðŸ–Color" class="cls-14" x="0.1" y="150.12" width="233.45" height="97.14"/></g></g><g class="cls-15"><path id="Straps" class="cls-16" d="M84,193.64v42.62H77.79V190.47A55.87,55.87,0,0,0,84,193.64Zm59-3.17V226.1a3.08,3.08,0,1,1-6.16,0V193.64A55.71,55.71,0,0,0,143,190.47Z" transform="translate(6 11)"/></g><g class="cls-17"><path id="Shadow" class="cls-18" d="M146.54,150.36c13.26,2.51,22.43,7.52,22.43,17.29,0,17.41-29.1,31.52-58.58,31.52S51.8,185.06,51.8,167.65c0-9.77,9.17-14.78,22.43-17.29-8,3-13.18,7.93-13.18,16.2,0,18,24.51,32.61,49.34,32.61s49.33-14.6,49.33-32.61c0-8.1-5-13-12.68-16Z" transform="translate(6 11)"/></g></g><g id="Face"><g id="Mouth_Smile" data-name="Mouth/Smile"><g id="Mouth"><path id="path-9-3" data-name="path-9" class="cls-19" d="M93.75,120.69a16.74,16.74,0,0,0,33.28-.08,1.85,1.85,0,0,0-1.63-1.8H95.49A1.89,1.89,0,0,0,93.75,120.69Z" transform="translate(6 11)"/></g><g class="cls-20"><path id="Teeth" class="cls-2" d="M101.58,109.1h18.5a4.4,4.4,0,0,1,4.4,4.41v5.3a4.41,4.41,0,0,1-4.4,4.42h-18.5a4.41,4.41,0,0,1-4.41-4.42v-5.3A4.4,4.4,0,0,1,101.58,109.1Z" transform="translate(6 11)"/></g><g class="cls-21"><g id="Tongue"><ellipse class="cls-22" cx="111.98" cy="149.24" rx="9.69" ry="9.71"/><ellipse class="cls-22" cx="120.79" cy="149.24" rx="9.69" ry="9.71"/></g></g></g><g id="Nose_Default" data-name="Nose/Default"><path id="Nose" class="cls-18" d="M99.82,103.8c0,3.9,4.73,7.06,10.57,7.06h0c5.84,0,10.57-3.16,10.57-7.06" transform="translate(6 11)"/></g><g id="Eyes_Happy-_" data-name="Eyes/Happy-ðŸ˜"><path id="Squint" class="cls-23" d="M75.29,88.3a10.86,10.86,0,0,1,19.08,0c.48,1-.21,1.81-.91,1.2a13.85,13.85,0,0,0-17-.17C75.63,89.94,74.81,89.28,75.29,88.3Z" transform="translate(6 11)"/><path id="Squint-2" data-name="Squint" class="cls-23" d="M126.39,88.3a10.85,10.85,0,0,1,19.07,0c.49,1-.2,1.81-.9,1.2a13.85,13.85,0,0,0-17-.17C126.73,89.94,125.91,89.28,126.39,88.3Z" transform="translate(6 11)"/></g><g id="Eyebrow_Natural_Default-Natural" data-name="Eyebrow/Natural/Default-Natural"><path id="Eyebrow" class="cls-23" d="M84.44,66.84c-5.12.24-13.39,4-13.17,9.14,0,.16.25.24.37.11,2.43-2.61,19.66-5.26,25.73-3.86.56.13,1-.42.63-.81-3-3.4-9-4.8-13.56-4.58" transform="translate(6 11)"/><path id="Eyebrow-2" data-name="Eyebrow" class="cls-23" d="M137.22,66.84c5.11.24,13.38,4,13.17,9.14a.23.23,0,0,1-.38.11c-2.42-2.61-19.66-5.26-25.73-3.86-.55.13-1-.42-.62-.81,3-3.4,9-4.8,13.56-4.58" transform="translate(6 11)"/></g></g><g id="Top"><g class="cls-24"><g id="Short-Hair"><path id="path-13-2" data-name="path-13" class="cls-25" d="M151.83,24.25a75.47,75.47,0,0,0-8-6.72c-.61-.47-1.22-.92-1.82-1.41a10.15,10.15,0,0,1-1.68-1.46c-.39-.88-.16-.2-.11-1.24.07-1.33,2.76-5.06.75-5.92-.88-.38-2.45.63-3.3,1q-2.49,1-5,1.67c.82-1.64,2.39-4.92-.56-4-2.29.69-4.42,2.45-6.73,3.27.76-1.25,3.81-5.13,1.06-5.35C125.53,4,123,5.56,122.12,5.9a48.87,48.87,0,0,1-8.49,2.22C103.76,9.9,92.23,9.39,83.1,13.9c-7,3.47-14,8.85-18,15.71-3.92,6.61-5.38,13.84-6.2,21.42a106.91,106.91,0,0,0-.37,16.88c.09,1.83.29,10.25,2.94,7.7,1.32-1.27,1.31-6.4,1.65-8.14a80.28,80.28,0,0,1,2.4-10.28c1.94-5.89,4.23-8.64,9.08-12.71,3.1-2.6,5.28-6.13,8.26-8.76,1.33-1.18.31-1,2.46-.9,1.44.11,2.89.14,4.34.18,3.34.09,6.69.07,10,.08,6.73,0,13.44.12,20.17-.23,3-.16,6-.25,9-.52,1.67-.16,4.63-1.23,6-.41s2.56,3.19,3.46,4.19a52.77,52.77,0,0,0,7.16,6.11c5.19,4.05,7.81,5.59,9.39,11.91s1.13,12.14,3.07,18.34c.35,1.09,1.25,3,2.37,1.28a12.74,12.74,0,0,0,.15-3c0-4,1-7,1-11C161.34,49.51,160.94,33.59,151.83,24.25Z" transform="translate(6 11)"/></g><g class="cls-26"><g id="Color_Hair_Brown-Dark" data-name="Color/Hair/Brown-Dark"><g id="Color-2" data-name="Color"><rect class="cls-27" width="234.05" height="247.66"/></g></g></g></g></g></g></g></g></g></svg>